<svg width="18" height="18" viewBox="0 0 18 18" fill="none" xmlns="http://www.w3.org/2000/svg">
<path fill-rule="evenodd" clip-rule="evenodd" d="M9 0.414062C4.30748 0.414062 0.5 4.22155 0.5 8.91406C0.5 13.6066 4.30748 17.4141 9 17.4141C13.6833 17.4141 17.5 13.6066 17.5 8.91406C17.5 4.22155 13.6833 0.414062 9 0.414062ZM14.6144 4.33217C15.6285 5.56753 16.237 7.14399 16.2554 8.84952C16.0157 8.80346 13.6187 8.31481 11.2034 8.61906C11.1481 8.49921 11.1019 8.37012 11.0466 8.24108C10.8991 7.89077 10.7332 7.53122 10.5672 7.1901C13.2408 6.10226 14.4577 4.535 14.6144 4.33217ZM9 1.66786C10.8438 1.66786 12.5309 2.35929 13.8124 3.49324C13.6833 3.67762 12.5862 5.14346 10.0049 6.11145C8.8156 3.92653 7.49731 2.13803 7.29448 1.86146C7.83837 1.73239 8.40999 1.66786 9 1.66786ZM5.91163 2.35007C6.10522 2.6082 7.39589 4.40593 8.60358 6.54474C5.21096 7.44824 2.21475 7.4298 1.89208 7.4298C2.36225 5.18033 3.8834 3.30885 5.91163 2.35007ZM1.73536 8.92331C1.73536 8.84952 1.73536 8.77578 1.73536 8.70204C2.04881 8.71123 5.5705 8.75734 9.19359 7.6695C9.40566 8.07511 9.59925 8.48997 9.78365 8.90482C9.69142 8.9325 9.59001 8.96017 9.49783 8.9878C5.75488 10.1955 3.76356 13.4959 3.59761 13.7725C2.44523 12.4911 1.73536 10.7856 1.73536 8.92331ZM9 16.1787C7.3221 16.1787 5.77332 15.6071 4.54718 14.6483C4.67625 14.381 6.15128 11.5415 10.2446 10.1126C10.263 10.1033 10.2722 10.1033 10.2907 10.0941C11.314 12.74 11.7289 14.9618 11.8395 15.5979C10.9637 15.9759 10.0049 16.1787 9 16.1787ZM13.0472 14.9341C12.9734 14.4916 12.5862 12.3712 11.6366 9.7622C13.9138 9.40265 15.9051 9.99271 16.154 10.0757C15.8406 12.0947 14.679 13.837 13.0472 14.9341Z" fill="white"/>
</svg>
