<svg width="18" height="18" viewBox="0 0 18 18" fill="none" xmlns="http://www.w3.org/2000/svg">
<path d="M8.9974 6.41146C8.33435 6.41146 7.69847 6.67485 7.22963 7.14369C6.76079 7.61253 6.4974 8.24842 6.4974 8.91146C6.4974 9.5745 6.76079 10.2104 7.22963 10.6792C7.69847 11.1481 8.33435 11.4115 8.9974 11.4115C9.66044 11.4115 10.2963 11.1481 10.7652 10.6792C11.234 10.2104 11.4974 9.5745 11.4974 8.91146C11.4974 8.24842 11.234 7.61253 10.7652 7.14369C10.2963 6.67485 9.66044 6.41146 8.9974 6.41146ZM8.9974 4.74479C10.1025 4.74479 11.1623 5.18378 11.9437 5.96518C12.7251 6.74658 13.1641 7.80639 13.1641 8.91146C13.1641 10.0165 12.7251 11.0763 11.9437 11.8577C11.1623 12.6391 10.1025 13.0781 8.9974 13.0781C7.89233 13.0781 6.83252 12.6391 6.05112 11.8577C5.26972 11.0763 4.83073 10.0165 4.83073 8.91146C4.83073 7.80639 5.26972 6.74658 6.05112 5.96518C6.83252 5.18378 7.89233 4.74479 8.9974 4.74479ZM14.4141 4.53646C14.4141 4.81273 14.3043 5.07768 14.109 5.27303C13.9136 5.46838 13.6487 5.57812 13.3724 5.57812C13.0961 5.57812 12.8312 5.46838 12.6358 5.27303C12.4405 5.07768 12.3307 4.81273 12.3307 4.53646C12.3307 4.26019 12.4405 3.99524 12.6358 3.79989C12.8312 3.60454 13.0961 3.49479 13.3724 3.49479C13.6487 3.49479 13.9136 3.60454 14.109 3.79989C14.3043 3.99524 14.4141 4.26019 14.4141 4.53646ZM8.9974 2.24479C6.93573 2.24479 6.59906 2.25063 5.6399 2.29313C4.98656 2.32396 4.54823 2.41146 4.14156 2.56979C3.80124 2.69474 3.49357 2.89501 3.24156 3.15562C2.98073 3.40762 2.78019 3.71528 2.6549 4.05562C2.49656 4.46396 2.40906 4.90146 2.37906 5.55396C2.33573 6.47396 2.33073 6.79562 2.33073 8.91146C2.33073 10.9731 2.33656 11.3098 2.37906 12.269C2.4099 12.9215 2.4974 13.3606 2.6549 13.7665C2.79656 14.129 2.96323 14.3898 3.2399 14.6665C3.52073 14.9465 3.78156 15.114 4.1399 15.2523C4.55156 15.4115 4.9899 15.4998 5.6399 15.5298C6.5599 15.5731 6.88156 15.5781 8.9974 15.5781C11.0591 15.5781 11.3957 15.5723 12.3549 15.5298C13.0066 15.499 13.4457 15.4115 13.8524 15.254C14.1922 15.1284 14.4997 14.9285 14.7524 14.669C15.0332 14.3881 15.2007 14.1273 15.3391 13.769C15.4974 13.3581 15.5857 12.919 15.6157 12.269C15.6591 11.349 15.6641 11.0273 15.6641 8.91146C15.6641 6.84979 15.6582 6.51312 15.6157 5.55396C15.5849 4.90229 15.4974 4.46229 15.3391 4.05562C15.2135 3.71563 15.0133 3.40809 14.7532 3.15562C14.5013 2.89466 14.1937 2.6941 13.8532 2.56896C13.4449 2.41062 13.0066 2.32313 12.3549 2.29313C11.4349 2.24979 11.1132 2.24479 8.9974 2.24479ZM8.9974 0.578125C11.2616 0.578125 11.5441 0.586458 12.4324 0.628125C13.3199 0.669792 13.9241 0.808958 14.4557 1.01563C15.0057 1.22729 15.4691 1.51396 15.9324 1.97646C16.3561 2.39304 16.684 2.89695 16.8932 3.45312C17.0991 3.98396 17.2391 4.58896 17.2807 5.47646C17.3199 6.36479 17.3307 6.64729 17.3307 8.91146C17.3307 11.1756 17.3224 11.4581 17.2807 12.3465C17.2391 13.234 17.0991 13.8381 16.8932 14.3698C16.6846 14.9263 16.3567 15.4303 15.9324 15.8465C15.5157 16.2701 15.0118 16.5979 14.4557 16.8073C13.9249 17.0131 13.3199 17.1531 12.4324 17.1948C11.5441 17.234 11.2616 17.2448 8.9974 17.2448C6.73323 17.2448 6.45073 17.2365 5.5624 17.1948C4.6749 17.1531 4.07073 17.0131 3.53906 16.8073C2.98267 16.5985 2.47867 16.2706 2.0624 15.8465C1.63857 15.4299 1.31067 14.926 1.10156 14.3698C0.894896 13.839 0.755729 13.234 0.714062 12.3465C0.674896 11.4581 0.664062 11.1756 0.664062 8.91146C0.664062 6.64729 0.672396 6.36479 0.714062 5.47646C0.755729 4.58812 0.894896 3.98479 1.10156 3.45312C1.31009 2.89661 1.63807 2.39256 2.0624 1.97646C2.47879 1.55248 2.98275 1.22457 3.53906 1.01563C4.07073 0.808958 4.67406 0.669792 5.5624 0.628125C6.45073 0.588958 6.73323 0.578125 8.9974 0.578125Z" fill="white"/>
</svg>
