<svg width="18" height="18" viewBox="0 0 18 18" fill="none" xmlns="http://www.w3.org/2000/svg">
<path d="M16.2416 0.414062H1.75508C1.06113 0.414062 0.5 0.961914 0.5 1.63926V16.1855C0.5 16.8629 1.06113 17.4141 1.75508 17.4141H16.2416C16.9355 17.4141 17.5 16.8629 17.5 16.1889V1.63926C17.5 0.961914 16.9355 0.414062 16.2416 0.414062ZM5.54355 14.9006H3.02012V6.78574H5.54355V14.9006ZM4.28184 5.68008C3.47168 5.68008 2.81758 5.02598 2.81758 4.21914C2.81758 3.4123 3.47168 2.7582 4.28184 2.7582C5.08867 2.7582 5.74277 3.4123 5.74277 4.21914C5.74277 5.02266 5.08867 5.68008 4.28184 5.68008ZM14.9865 14.9006H12.4664V10.9561C12.4664 10.0164 12.4498 8.80449 11.1549 8.80449C9.84336 8.80449 9.64414 9.83047 9.64414 10.8896V14.9006H7.12734V6.78574H9.54453V7.89473H9.57773C9.91308 7.25723 10.7365 6.5832 11.9617 6.5832C14.515 6.5832 14.9865 8.26328 14.9865 10.448V14.9006Z" fill="white"/>
</svg>
