<svg width="1213" height="257" viewBox="0 0 1213 257" fill="none" xmlns="http://www.w3.org/2000/svg">
<path d="M484.464 103.85C475.962 94.4381 465.585 86.9187 454.005 81.7771C442.424 76.6355 429.897 73.9861 417.233 74.0001C405.304 74.0013 393.492 76.3585 382.472 80.937C371.452 85.5156 361.439 92.2259 353.005 100.685C344.571 109.144 337.881 119.185 333.317 130.237C328.753 141.288 326.405 153.132 326.406 165.094C326.409 189.247 335.979 212.411 353.011 229.49C370.044 246.57 393.145 256.166 417.233 256.168C429.819 256.18 442.27 253.56 453.79 248.476C465.311 243.392 475.648 235.956 484.141 226.642L511.032 253.625V77.1908L484.464 103.85ZM417.233 229.299C408.823 229.3 400.495 227.641 392.725 224.415C384.955 221.189 377.894 216.46 371.947 210.498C365.999 204.536 361.281 197.457 358.061 189.667C354.842 181.876 353.184 173.526 353.183 165.094C353.183 148.06 359.931 131.724 371.943 119.68C383.954 107.636 400.246 100.869 417.233 100.869C434.22 100.869 450.511 107.636 462.522 119.68C474.534 131.724 481.282 148.06 481.282 165.094C481.281 173.526 479.623 181.876 476.404 189.667C473.184 197.457 468.466 204.536 462.519 210.498C456.571 216.46 449.511 221.189 441.74 224.415C433.97 227.641 425.642 229.3 417.233 229.299Z" fill="white"/>
<path d="M1022.89 83.8098L1002.73 104.021C995.449 101.25 987.723 99.8361 979.935 99.8493C964.898 99.8493 951.344 105.374 940.183 113.708C937.108 116.05 934.282 118.702 931.748 121.623C920.932 134.133 915.033 150.166 915.154 166.722V256.253H886.914V76.1901L913.092 102.449C926.735 87.5638 944.928 77.6528 964.807 74.278C984.686 70.9032 1005.12 74.2567 1022.89 83.8098Z" fill="white"/>
<path d="M801.965 151.194V164.976C801.936 169.596 802.414 174.205 803.39 178.72C809.023 204.618 828.808 224.658 855.253 228.496V255.555C835.265 253.514 816.52 244.87 801.965 230.982C793.02 222.483 785.899 212.243 781.038 200.889C776.177 189.534 773.679 177.304 773.697 164.948V103.876H745.125L773.403 75.5304H773.697V0H801.965V75.5304H855.253V103.876H801.965V151.194Z" fill="white"/>
<path d="M724.685 149.245V255.702H696.379V156.483C696.379 125.243 671.873 99.9357 641.638 99.9357C611.404 99.9357 586.888 125.243 586.888 156.483V255.702H558.648V75.6002L583.877 100.907C591.33 92.1752 600.576 85.1609 610.983 80.3443C621.39 75.5276 632.712 73.0224 644.175 73C663.412 73.0065 681.986 80.0468 696.417 92.8017C712.798 107.216 722.937 127.461 724.685 149.245Z" fill="white"/>
<path d="M1186.4 103.818C1174.08 90.2296 1157.96 80.6919 1140.14 76.4562C1122.32 72.2205 1103.64 73.4845 1086.55 80.0825C1069.46 86.6805 1054.76 98.3043 1044.37 113.429C1033.99 128.553 1028.41 146.472 1028.36 164.835C1028.31 183.197 1033.8 201.145 1044.1 216.324C1054.41 231.503 1069.05 243.205 1086.1 249.893C1103.16 256.581 1121.83 257.944 1139.67 253.802C1157.51 249.661 1173.69 240.209 1186.07 226.686L1212.98 253.669V77.168L1186.4 103.818ZM1119.18 229.276C1106.51 229.278 1094.12 225.513 1083.59 218.456C1073.05 211.4 1064.84 201.37 1059.99 189.634C1055.14 177.898 1053.88 164.984 1056.35 152.524C1058.82 140.065 1064.92 128.621 1073.88 119.638C1082.83 110.656 1094.25 104.539 1106.67 102.061C1119.1 99.5829 1131.98 100.856 1143.68 105.718C1155.39 110.58 1165.39 118.813 1172.43 129.376C1179.46 139.94 1183.22 152.358 1183.22 165.061C1183.22 173.495 1181.56 181.846 1178.35 189.638C1175.13 197.43 1170.41 204.51 1164.46 210.474C1158.52 216.437 1151.46 221.167 1143.69 224.393C1135.91 227.62 1127.59 229.279 1119.18 229.276Z" fill="white"/>
<path d="M300.966 149.092V255.702H272.736V156.483C272.736 125.243 248.229 99.9357 217.995 99.9357C191.398 99.9357 166.018 124.7 166.018 156.483V255.702H137.759V156.483C137.759 125.243 113.243 99.9357 83.0185 99.9357C52.7937 99.9357 28.2681 125.243 28.2681 156.483V255.702H0V75.6002L25.2285 100.907C32.6796 92.1755 41.9244 85.1612 52.3299 80.3445C62.7353 75.5278 74.0559 73.0225 85.5166 73C104.753 73.0108 123.326 80.0506 137.759 92.8017C143.2 97.5775 147.991 103.05 152.007 109.079L152.957 110.556C155.467 106.612 158.308 102.89 161.449 99.4309C168.896 91.1245 178 84.4796 188.171 79.9264C198.342 75.3732 209.354 73.0134 220.493 73C239.726 73.0064 258.299 80.0392 272.736 92.7827C289.067 107.175 299.188 127.363 300.966 149.092Z" fill="white"/>
</svg>
